<svg width="607" height="307" viewBox="0 0 607 307" fill="none" xmlns="http://www.w3.org/2000/svg">
<path d="M580 249C580 265.491 566.423 279 549.5 279C532.577 279 519 265.491 519 249C519 232.509 532.577 219 549.5 219C566.423 219 580 232.509 580 249Z" stroke="#54B435" stroke-opacity="0.5" stroke-width="12"/>
<circle cx="76" cy="231" r="64" stroke="white" stroke-opacity="0.05" stroke-width="24"/>
<path d="M112 68.5C112 81.384 101.35 92 88 92C74.6497 92 64 81.384 64 68.5C64 55.616 74.6497 45 88 45C101.35 45 112 55.616 112 68.5Z" stroke="#54B435" stroke-opacity="0.5" stroke-width="12"/>
<path d="M594.5 73.5C594.5 107.27 567.333 134.5 534 134.5C500.667 134.5 473.5 107.27 473.5 73.5C473.5 39.73 500.667 12.5 534 12.5C567.333 12.5 594.5 39.73 594.5 73.5Z" stroke="white" stroke-opacity="0.05" stroke-width="25"/>
<path d="M67 188C67 204.491 53.423 218 36.5 218C19.577 218 6 204.491 6 188C6 171.509 19.577 158 36.5 158C53.423 158 67 171.509 67 188Z" stroke="#54B435" stroke-opacity="0.5" stroke-width="12"/>
<path d="M206 70.5C206 78.9311 198.967 86 190 86C181.033 86 174 78.9311 174 70.5C174 62.0689 181.033 55 190 55C198.967 55 206 62.0689 206 70.5Z" stroke="#54B435" stroke-opacity="0.5" stroke-width="12"/>
<path d="M719.5 112C719.5 166.9 674.781 211.5 619.5 211.5C564.219 211.5 519.5 166.9 519.5 112C519.5 57.1001 564.219 12.5 619.5 12.5C674.781 12.5 719.5 57.1001 719.5 112Z" stroke="white" stroke-opacity="0.05" stroke-width="25"/>

</svg>

